<svg id="visual" viewBox="0 0 960 540" width="960" height="540" xmlns="http://www.w3.org/2000/svg" xmlns:xlink="http://www.w3.org/1999/xlink" version="1.1"><rect x="0" y="0" width="960" height="540" fill="#ffffff"></rect><defs><linearGradient id="grad1_0" x1="43.8%" y1="100%" x2="100%" y2="0%"><stop offset="14.444444444444446%" stop-color="#f5252a" stop-opacity="1"></stop><stop offset="85.55555555555554%" stop-color="#f5252a" stop-opacity="1"></stop></linearGradient></defs><defs><linearGradient id="grad1_1" x1="43.8%" y1="100%" x2="100%" y2="0%"><stop offset="14.444444444444446%" stop-color="#f5252a" stop-opacity="1"></stop><stop offset="85.55555555555554%" stop-color="#ffffff" stop-opacity="1"></stop></linearGradient></defs><defs><linearGradient id="grad2_0" x1="0%" y1="100%" x2="56.3%" y2="0%"><stop offset="14.444444444444446%" stop-color="#f5252a" stop-opacity="1"></stop><stop offset="85.55555555555554%" stop-color="#f5252a" stop-opacity="1"></stop></linearGradient></defs><defs><linearGradient id="grad2_1" x1="0%" y1="100%" x2="56.3%" y2="0%"><stop offset="14.444444444444446%" stop-color="#ffffff" stop-opacity="1"></stop><stop offset="85.55555555555554%" stop-color="#f5252a" stop-opacity="1"></stop></linearGradient></defs><g transform="translate(960, 540)"><path d="M-189 0C-184.8 -34.4 -180.7 -68.8 -163.7 -94.5C-146.7 -120.2 -116.9 -137.3 -87.5 -151.6C-58.1 -165.9 -29 -177.4 0 -189L0 0Z" fill="#ffa18f"></path><path d="M-94.5 0C-92.4 -17.2 -90.3 -34.4 -81.8 -47.3C-73.4 -60.1 -58.5 -68.6 -43.8 -75.8C-29 -82.9 -14.5 -88.7 0 -94.5L0 0Z" fill="#f5252a"></path></g><g transform="translate(0, 0)"><path d="M189 0C176 28.2 163.1 56.5 149 86C134.8 115.5 119.5 146.3 94.5 163.7C69.5 181.1 34.7 185 0 189L0 0Z" fill="#ffa18f"></path><path d="M94.5 0C88 14.1 81.5 28.2 74.5 43C67.4 57.8 59.8 73.2 47.3 81.8C34.7 90.5 17.4 92.5 0 94.5L0 0Z" fill="#f5252a"></path></g></svg>